<svg xmlns="http://www.w3.org/2000/svg" viewBox="0 0 348.61 100">
  <path fill="currentColor" d="m0 78.14 9.77-12.25A54.8 54.8 0 0 0 23.6 75a35.1 35.1 0 0 0 14.07 2.9q7.65 0 12.25-2.82t4.59-7.54A7.79 7.79 0 0 0 51.39 61Q48.27 58.6 41 57.42l-16.39-2.83Q14 52.82 8.54 47.17T3.06 32.58q0-11.55 8.77-18.25t23.72-6.71a56.6 56.6 0 0 1 18.08 3.06 52.2 52.2 0 0 1 15.95 8.47l-9.19 12.72a51.6 51.6 0 0 0-13-7.48A36.7 36.7 0 0 0 34.38 22q-6.84 0-11 2.53t-4.12 6.77A7.06 7.06 0 0 0 22 37.17q2.7 2.11 9.06 3.06l15.54 2.59q12.24 2 18.43 7.83T71.23 66a22.85 22.85 0 0 1-9.48 19.2q-9.48 7.18-25.25 7.18A53 53 0 0 1 17 88.62 55.3 55.3 0 0 1 0 78.14m106.49 13.07L73.05 8.79h18.49l25.19 65.11 25.78-65.11h17.66l-33.9 82.42z"/>
  <path fill="currentColor" d="M198.38 43.21v13.57h25.1a2 2 0 0 1 0 .29 23.6 23.6 0 0 1-1.55 6 22 22 0 0 1-2 3.89l-.06.08a20.5 20.5 0 0 1-3.87 4.28q-.48.42-1 .81a22.6 22.6 0 0 1-5.41 3.08A25.5 25.5 0 0 1 200 77a26.6 26.6 0 0 1-10.4-2.1 25.32 25.32 0 0 1-13.95-14.19 25 25 0 0 1-1.08-3.32 28.7 28.7 0 0 1-.92-7.39 29.1 29.1 0 0 1 1.26-8.68 20 20 0 0 1 .68-2 26.6 26.6 0 0 1 2-4.1 24.4 24.4 0 0 1 3.41-4.35c.26-.27.53-.54.81-.8a25 25 0 0 1 7.43-4.85 25.6 25.6 0 0 1 10.3-2.07h1.8a27.4 27.4 0 0 1 10.11 2.54l.39.18a30.4 30.4 0 0 1 10.07 7.95l11.89-10.95a40.7 40.7 0 0 0-14.95-11.3 46.1 46.1 0 0 0-19.3-4.07h-1.65a44.1 44.1 0 0 0-15.42 3.26 42.7 42.7 0 0 0-13.83 9 40.5 40.5 0 0 0-5.28 6.34 42.3 42.3 0 0 0-3.91 7.14A41.8 41.8 0 0 0 156.11 50a44 44 0 0 0 .25 4.76c.09.89.21 1.76.37 2.63a40 40 0 0 0 2.79 9.32A43.5 43.5 0 0 0 166 77.23c.87 1 1.78 2 2.75 3a42.7 42.7 0 0 0 13.83 9 44.7 44.7 0 0 0 17.19 3.3 42.8 42.8 0 0 0 12.29-1.74 39 39 0 0 0 4.19-1.5 41 41 0 0 0 8.29-4.67 36.6 36.6 0 0 0 4.81-4.14A40.2 40.2 0 0 0 238 67a42 42 0 0 0 2.4-8.51 48 48 0 0 0 .72-8.39v-6.9z"/>
  <svg><use x="124" href="#logo"/></svg>
</svg>
