<svg viewBox="0 0 1041.277 554.141"><defs><path id="a" d="M.519 0h2.437a.519.519 0 0 1 .519.519v1.5a.519.519 0 0 1-.519.519H.519A.519.519 0 0 1 0 2.017V.519A.519.519 0 0 1 .519 0"/></defs><g transform="translate(-.011 -.035)"><path fill="#f2f2f2" d="M961.48 438.21q-1.74 3.75-3.47 7.4-2.7 5.67-5.33 11.12c-.78 1.61-1.56 3.19-2.32 4.77-8.6 17.57-16.63 33.11-23.45 45.89a73.21 73.21 0 0 1-63.81 38.7l-151.65 1.65h-1.6l-13 .14-11.12.12-34.1.37h-1.38l-17.36.19h-.53l-107 1.16-95.51 1-11.11.12-69 .75h-.08l-44.75.48h-.48l-141.5 1.53-42.33.46a87.991 87.991 0 0 1-10.79-.54c-1.22-.14-2.44-.3-3.65-.49a87.38 87.38 0 0 1-51.29-27.54c-18.21-20.03-31.46-43.4-40.36-68.76q-1.93-5.49-3.6-11.12c-30.81-104.15 6.75-238.52 74.35-328.44q4.25-5.64 8.64-11l.07-.08c20.79-25.52 44.1-46.84 68.93-62 44-26.91 92.75-34.49 140.7-11.9 40.57 19.12 78.45 28.11 115.17 30.55 3.71.24 7.42.42 11.11.53 84.23 2.65 163.17-27.7 255.87-47.29 3.69-.78 7.39-1.55 11.12-2.28C763 .54 836.36-6.4 923.6 8.19a189.089 189.089 0 0 1 26.76 6.4q5.77 1.86 11.12 4c41.64 16.94 64.35 48.24 74 87.46q1.37 5.46 2.37 11.11c17.11 94.34-33 228.16-76.37 321.05Z"/><path d="M497.02 445.61a95.21 95.21 0 0 1-1.87 11.12h93.7v-11.12Zm-78.25 62.81 11.11-.09v-27.47c-3.81-.17-7.52-.34-11.11-.52Zm-232.92-62.81v11.12h198.5v-11.12Zm849.68-339.52h-74V18.6q-5.35-2.17-11.12-4v91.49H696.87V13.67c-3.73.73-7.43 1.5-11.12 2.28v90.14H429.88V63.24c-3.69-.11-7.4-.29-11.11-.53v43.38H162.9v-62c-24.83 15.16-48.14 36.48-68.93 62h-.07v.08q-4.4 5.4-8.64 11h8.64v328.44h-83q1.66 5.63 3.6 11.12h79.39v93.62a87 87 0 0 0 12.2 2.79c1.21.19 2.43.35 3.65.49a87.991 87.991 0 0 0 10.79.54l42.33-.46v-97h255.91v94.21l11.11-.12v-94.07h255.87v91.36l11.12-.12v-91.24h253.49v4.77c.76-1.58 1.54-3.16 2.32-4.77q2.63-5.45 5.33-11.12 1.73-3.64 3.47-7.4v-321h76.42q-1.01-5.69-2.37-11.12ZM162.9 445.61V117.17h255.87v328.44Zm267 0V117.17h255.85v328.44Zm520.48 0H696.87V117.17h253.49Z" opacity=".1"/><path fill="#65617d" d="M863.09 533.65v13l-151.92 1.4-1.62.03-57.74.53-1.38.02-17.55.15h-.52l-106.98.99-175.61 1.63h-.15l-44.65.42-.48.01-198.4 1.82v-15l46.65-28 93.6-.78 2-.01.66-.01 2-.03 44.94-.37 2.01-.01.64-.01 2-.01 14.41-.12.38-.01 35.55-.3h.29l277.4-2.34 6.79-.05h.68l5.18-.05 37.65-.31 2-.03 1.85-.02h.96l11.71-.09 2.32-.03 3.11-.02 9.75-.09 15.47-.13 2-.02 3.48-.02h.65l74.71-.64Z"/><path d="M863.09 533.65v13l-151.92 1.4-1.62.03-57.74.53-1.38.02-17.55.15h-.52l-106.98.99-175.61 1.63h-.15l-44.65.42-.48.01-198.4 1.82v-15l46.65-28 93.6-.78 2-.01.66-.01 2-.03 44.94-.37 2.01-.01.64-.01 2-.01 14.41-.12.38-.01 35.55-.3h.29l277.4-2.34 6.79-.05h.68l5.18-.05 37.65-.31 2-.03 1.85-.02h.96l11.71-.09 2.32-.03 3.11-.02 9.75-.09 15.47-.13 2-.02 3.48-.02h.65l74.71-.64Z" opacity=".2"/><path fill="#3f3d56" d="M296.1 483.66v24.49a6.13 6.13 0 0 1-3.5 5.54 6 6 0 0 1-2.5.6l-34.9.74a6 6 0 0 1-2.7-.57 6.12 6.12 0 0 1-3.57-5.57v-25.23Z"/><path d="M296.1 483.66v24.49a6.13 6.13 0 0 1-3.5 5.54 6 6 0 0 1-2.5.6l-34.9.74a6 6 0 0 1-2.7-.57 6.12 6.12 0 0 1-3.57-5.57v-25.23Z" opacity=".1"/><path fill="#3f3d56" d="M298.1 483.66v24.49a6.13 6.13 0 0 1-3.5 5.54 6 6 0 0 1-2.5.6l-34.9.74a6 6 0 0 1-2.7-.57 6.12 6.12 0 0 1-3.57-5.57v-25.23Zm382.82-.01h47.17v31.5h-47.17z"/><path d="M680.92 483.65h47.17v31.5h-47.17z" opacity=".1"/><path fill="#3f3d56" d="M678.92 483.65h47.17v31.5h-47.17z"/><path d="M298.09 483.65v4.97l-47.17 1.26v-6.23Z" opacity=".1"/><path fill="#65617d" d="M381.35 312.36v168.2a4 4 0 0 1-3.85 3.95l-191.65 5.1h-.05a4 4 0 0 1-3.95-3.95v-173.3a4 4 0 0 1 3.95-3.95h191.6a4 4 0 0 1 3.95 3.95Z"/><path d="M185.85 308.41v181.2h-.05a4 4 0 0 1-3.95-3.95v-173.3a4 4 0 0 1 3.95-3.95Z" opacity=".1"/><path fill="#333" d="M194.59 319.15h177.5V467.4l-177.5 4Z"/><path d="M726.09 483.65v6.41l-47.17-1.26v-5.15Z" opacity=".1"/><path fill="#65617d" d="M788.35 312.36v173.3a4 4 0 0 1-4 3.95l-191.69-5.1a4 4 0 0 1-3.85-3.95v-168.2a4 4 0 0 1 3.95-3.95h191.6a4 4 0 0 1 3.99 3.95Z"/><path d="M788.35 312.36v173.3a4 4 0 0 1-4 3.95v-181.2a4 4 0 0 1 4 3.95" opacity=".1"/><path fill="#333" d="M775.59 319.15h-177.5V467.4l177.5 4Z"/><path fill="#65617d" d="M583.85 312.36v168.2a4 4 0 0 1-3.85 3.95l-191.65 5.1a4 4 0 0 1-4-3.95v-173.3a4 4 0 0 1 3.95-3.95h191.6a4 4 0 0 1 3.95 3.95"/><path fill="#4267b2" d="M397.09 319.15h177.5V467.4l-177.5 4Z"/><path d="M863.09 533.65v13l-151.92 1.4-1.62.03-57.74.53-1.38.02-17.55.15h-.52l-106.98.99-175.61 1.63h-.15l-44.65.42-.48.01-198.4 1.82v-15l202.51-1.33h.48l40.99-.28h.19l283.08-1.87h.29l.17-.01h.47l4.79-.03h1.46l74.49-.5 4.4-.02.98-.01Z" opacity=".1"/><circle cx="51.33" cy="51.33" r="51.33" fill="#fbbebe" transform="translate(435.93 246.82)"/><path fill="#fbbebe" d="M538.6 377.16s-99.5 12-90 0c3.44-4.34 4.39-17.2 4.2-31.85-.06-4.45-.22-9.06-.45-13.65-1.1-22-3.75-43.5-3.75-43.5s87-41 77-8.5c-4 13.13-2.69 31.57.35 48.88.89 5.05 1.92 10 3 14.7a344.66 344.66 0 0 0 9.65 33.92"/><path fill="#ff6584" d="M506.13 373.09c11.51-2.13 23.7-6 34.53-1.54 2.85 1.17 5.47 2.88 8.39 3.86s6.12 1.22 9.16 1.91c10.68 2.42 19.34 10.55 24.9 20s8.44 20.14 11.26 30.72l6.9 25.83c6 22.45 12 45.09 13.39 68.3a2437.506 2437.506 0 0 1-250.84 1.43c5.44-10.34 11-21.31 10.54-33s-7.19-23.22-4.76-34.74c1.55-7.34 6.57-13.39 9.64-20.22 8.75-19.52 1.94-45.79 17.32-60.65 6.92-6.68 17-9.21 26.63-8.89 12.28.41 24.85 4.24 37 6.11 15.56 2.36 30.26 3.76 45.94.88Z"/><path d="m637.03 484.26-.1 1.43v.1l-.17 2.3-1.33 18.51-1.61 22.3-.46 6.28-1 13.44v.17l-107 1-175.59 1.9v.84h-.14v-1.12l.45-14.36.86-28.06.74-23.79.07-2.37a10.53 10.53 0 0 1 11.42-10.17c4.72.4 10.85.89 18.18 1.41l3 .22c42.33 2.94 120.56 6.74 199.5 2 1.66-.09 3.33-.19 5-.31 12.24-.77 24.47-1.76 36.58-3a10.53 10.53 0 0 1 11.6 11.23Z" opacity=".1"/><path fill="#3f3d56" d="M349.74 552.53v-.84l175.62-1.91 107-1h.3v-.17l1-13.44.43-6 1.64-22.61 1.29-17.9v-.44a10.617 10.617 0 0 0-.11-2.47.3.3 0 0 0 0-.1 10.391 10.391 0 0 0-2-4.64 10.54 10.54 0 0 0-9.42-4 937.419 937.419 0 0 1-36.58 3c-1.67.12-3.34.22-5 .31-78.94 4.69-157.17.89-199.5-2l-3-.22c-7.33-.52-13.46-1-18.18-1.41a10.54 10.54 0 0 0-11.24 8.53 11 11 0 0 0-.18 1.64l-.68 22.16-.93 28.07-.44 14.36v1.12Z"/><path d="m637.33 491.27-1.23 15.33-1.83 22.85-.46 5.72-1 12.81-.06.64v.17l-.15 1.48.11-1.48h-.29l-107 1-175.65 1.9v-.28l.49-14.36 1-28.06.64-18.65a6.36 6.36 0 0 1 3.06-5.25 6.25 6.25 0 0 1 3.78-.9c2.1.17 4.68.37 7.69.59 4.89.36 10.92.78 17.94 1.22 13 .82 29.31 1.7 48 2.42 52 2 122.2 2.67 188.88-3.17 3-.26 6.1-.55 9.13-.84a6.26 6.26 0 0 1 3.48.66 5.159 5.159 0 0 1 .86.54 6.14 6.14 0 0 1 2 2.46 3.564 3.564 0 0 1 .25.61 6.279 6.279 0 0 1 .36 2.59ZM298.1 504.96v3.19a6.13 6.13 0 0 1-3.5 5.54l-40.1.77a6.12 6.12 0 0 1-3.57-5.57v-3Z" opacity=".1"/><path fill="#3f3d56" d="m298.59 515.57-52.25 1v-8.67l52.25-1Z"/><path d="m298.59 515.57-52.25 1v-8.67l52.25-1Z" opacity=".1"/><path fill="#3f3d56" d="m300.59 515.57-52.25 1v-8.67l52.25-1Z"/><path d="M679.22 506.96v3.19a6.13 6.13 0 0 0 3.5 5.54l40.1.77a6.12 6.12 0 0 0 3.57-5.57v-3Z" opacity=".1"/><path d="m678.72 517.57 52.25 1v-8.67l-52.25-1Z" opacity=".1"/><path fill="#3f3d56" d="m676.72 517.57 52.25 1v-8.67l-52.25-1ZM454.79 313.88c.08 7-3.16 13.6-5.91 20.07a163.491 163.491 0 0 0-12.66 74.71c.73 11 2.58 22 .73 32.9s-8.43 21.77-19 24.9c17.53 10.45 41.26 9.35 57.76-2.66 8.79-6.4 15.34-15.33 21.75-24.11a97.86 97.86 0 0 1-13.31 44.75 103.43 103.43 0 0 0 73.51-40.82c4.31-5.81 8.06-12.19 9.72-19.23 3.09-13-1.22-26.51-4.51-39.5a266.055 266.055 0 0 1-6.17-33c-.43-3.56-.78-7.22.1-10.7 1-4.07 3.67-7.51 5.64-11.22 5.6-10.54 5.73-23.3 2.86-34.88s-8.49-22.26-14.06-32.81c-4.46-8.46-9.3-17.31-17.46-22.28-5.1-3.1-11-4.39-16.88-5.64l-25.37-5.43c-5.55-1.19-11.26-2.38-16.87-1.51-9.47 1.48-16.14 8.32-22 15.34-4.59 5.46-15.81 15.71-16.6 22.86-.72 6.59 5.1 17.63 6.09 24.58 1.3 9 2.22 6 7.3 11.52 3.21 3.42 5.28 7.37 5.34 12.16Z"/></g><path fill="url(#a)" d="M340.15 39.88A43.42 43.42 0 0 0 335 28c1.72-2.41 3.36-4.89 4.89-7.49L328.08 8.75c-2.68 1.58-5.22 3.28-7.71 5.05a42.48 42.48 0 0 0-11.52-4.75c-.51-3-1.11-6-1.9-9h-16.67c-.78 3-1.37 5.92-1.87 8.88a42.9 42.9 0 0 0-11.85 4.7c-2.39-1.69-4.83-3.33-7.41-4.83l-11.78 11.73c1.42 2.43 2.94 4.74 4.53 7A43.1 43.1 0 0 0 256.39 40c-2.6.46-5.18 1-7.78 1.68v16.65c2.42.64 4.82 1.14 7.24 1.58a42.94 42.94 0 0 0 5.34 13.58 82.692 82.692 0 0 0-3.82 6l11.78 11.79c2-1.16 3.9-2.4 5.76-3.68a42.75 42.75 0 0 0 13.92 5.8c.4 2.22.88 4.42 1.45 6.63H307c.59-2.27 1.07-4.53 1.49-6.79A43.07 43.07 0 0 0 322 87.35c2 1.36 4 2.67 6.07 3.9l11.78-11.79a96.887 96.887 0 0 0-4.19-6.48 43.12 43.12 0 0 0 5-13c2.64-.47 5.28-1 7.92-1.7V41.67c-2.79-.74-5.58-1.31-8.43-1.79m-29.22 40.05a31.54 31.54 0 0 1-24.77.23.13.13 0 0 0 0-.06 31.67 31.67 0 0 1-17.19-17.64l-.16-.42a31.47 31.47 0 0 1 .62-23.51c.18-.42.37-.84.58-1.26a31.74 31.74 0 0 1 15.89-15.16q1-.43 2.1-.81a31.5 31.5 0 0 1 10.28-1.72 31.12 31.12 0 0 1 10.79 1.91c.79.29 1.56.6 2.32 1a31.64 31.64 0 0 1 15.18 14.81q.45.91.84 1.86A31.4 31.4 0 0 1 328 61.5c-.12.35-.24.7-.38 1a31.69 31.69 0 0 1-16.48 17.29z" transform="translate(-15 345)"/><path fill="url(#b)" d="M321 60.91a6.33 6.33 0 0 0-10.63-3.26l-5-3.72a8.63 8.63 0 0 0-2.28-11.3l4-6.93a4.34 4.34 0 1 0-2.8-2.7 4.27 4.27 0 0 0 1.08 1.66l-4 6.93a8.79 8.79 0 0 0-3.94-.72 8.65 8.65 0 0 0-7.2 4.66l-8.58-3.37v-.09a4 4 0 1 0-.75 1.95l8.58 3.37a8.67 8.67 0 0 0 2.92 8.84l-4 6.24a5.23 5.23 0 0 0-2.27-.38 5.33 5.33 0 1 0 4 1.45l4-6.22a8.67 8.67 0 0 0 10.07-1.82l5 3.73a6.33 6.33 0 1 0 11.8 1.68z" transform="translate(-15 345)"/><g fill="#61dafb" transform="translate(466.3 278.56)"><path d="M263.668 117.179c0-5.827-7.3-11.35-18.487-14.775 2.582-11.4 1.434-20.477-3.622-23.382a7.861 7.861 0 0 0-4.016-1v4a4.152 4.152 0 0 1 2.044.466c2.439 1.4 3.5 6.724 2.672 13.574-.2 1.685-.52 3.461-.914 5.272a86.9 86.9 0 0 0-11.386-1.954 87.469 87.469 0 0 0-7.459-8.965c5.845-5.433 11.332-8.41 15.062-8.41V78c-4.931 0-11.386 3.514-17.913 9.611-6.527-6.061-12.982-9.539-17.913-9.539v4c3.712 0 9.216 2.959 15.062 8.356a84.687 84.687 0 0 0-7.405 8.947 83.732 83.732 0 0 0-11.4 1.972 54.136 54.136 0 0 1-.932-5.2c-.843-6.85.2-12.175 2.618-13.592a3.991 3.991 0 0 1 2.062-.466v-4a8 8 0 0 0-4.052 1c-5.039 2.9-6.168 11.96-3.568 23.328-11.153 3.443-18.415 8.947-18.415 14.757 0 5.828 7.3 11.35 18.487 14.775-2.582 11.4-1.434 20.477 3.622 23.382a7.882 7.882 0 0 0 4.034 1c4.931 0 11.386-3.514 17.913-9.611 6.527 6.061 12.982 9.539 17.913 9.539a8 8 0 0 0 4.052-1c5.039-2.9 6.168-11.96 3.568-23.328 11.111-3.42 18.373-8.943 18.373-14.752Zm-23.346-11.96a80.235 80.235 0 0 1-2.421 7.083 83.185 83.185 0 0 0-2.349-4.3 96.877 96.877 0 0 0-2.582-4.2c2.547.377 5.004.843 7.353 1.417Zm-8.212 19.1c-1.4 2.421-2.833 4.716-4.321 6.85a93.313 93.313 0 0 1-8.1.359c-2.708 0-5.415-.126-8.069-.341q-2.232-3.2-4.339-6.814-2.044-3.523-3.73-7.136a94.058 94.058 0 0 1 3.712-7.154c1.4-2.421 2.833-4.716 4.321-6.85a93.313 93.313 0 0 1 8.1-.359c2.708 0 5.415.126 8.069.341q2.232 3.2 4.339 6.814 2.044 3.523 3.73 7.136a101.198 101.198 0 0 1-3.712 7.15Zm5.792-2.331a76.525 76.525 0 0 1 2.474 7.136 80.22 80.22 0 0 1-7.387 1.434c.879-1.381 1.757-2.8 2.582-4.25a96.22 96.22 0 0 0 2.329-4.324Zm-18.182 19.128a73.921 73.921 0 0 1-4.985-5.738c1.614.072 3.263.126 4.931.126 1.685 0 3.353-.036 4.985-.126a69.993 69.993 0 0 1-4.931 5.738m-13.34-10.561c-2.546-.377-5-.843-7.352-1.417a80.235 80.235 0 0 1 2.421-7.083c.735 1.434 1.506 2.869 2.349 4.3s1.702 2.837 2.582 4.2Zm13.25-37.314a73.924 73.924 0 0 1 4.985 5.738 110.567 110.567 0 0 0-4.931-.126c-1.686 0-3.353.036-4.985.126a69.993 69.993 0 0 1 4.931-5.738M206.362 103.8a100.567 100.567 0 0 0-4.913 8.55 76.525 76.525 0 0 1-2.474-7.136 90.158 90.158 0 0 1 7.387-1.414m-16.227 22.449c-6.348-2.708-10.454-6.258-10.454-9.073s4.106-6.383 10.454-9.073c1.542-.663 3.228-1.255 4.967-1.811a86.122 86.122 0 0 0 4.034 10.92 84.9 84.9 0 0 0-3.981 10.866 53.804 53.804 0 0 1-5.021-1.826Zm9.647 25.623c-2.439-1.4-3.5-6.724-2.672-13.574.2-1.686.52-3.461.914-5.272a86.9 86.9 0 0 0 11.386 1.954 87.465 87.465 0 0 0 7.459 8.965c-5.845 5.433-11.332 8.41-15.062 8.41a4.279 4.279 0 0 1-2.026-.48Zm42.532-13.663c.843 6.85-.2 12.175-2.618 13.592a3.99 3.99 0 0 1-2.062.466c-3.712 0-9.216-2.959-15.062-8.356a84.689 84.689 0 0 0 7.405-8.947 83.731 83.731 0 0 0 11.4-1.972 50.194 50.194 0 0 1 .936 5.22Zm6.9-11.96c-1.542.663-3.228 1.255-4.967 1.811a86.12 86.12 0 0 0-4.034-10.92 84.9 84.9 0 0 0 3.981-10.866 56.777 56.777 0 0 1 5.039 1.829c6.348 2.708 10.454 6.258 10.454 9.073-.017 2.818-4.123 6.386-10.471 9.076Zm-47.496-48.177"/><circle cx="8.194" cy="8.194" r="8.194" transform="translate(211.472 108.984)"/></g></svg>