<svg viewBox="0 0 1129 663"><defs><linearGradient id="a" x1="263.36" x2="333.47" y1="14.74" y2="84.85"><stop offset="0" stop-color="#45afe4"/><stop offset="1" stop-color="#364f9e"/></linearGradient><linearGradient id="b" x1="262.64" x2="332.75" y1="15.46" y2="85.57" href="#a"/></defs><circle cx="321" cy="321" r="321" fill="#f2f2f2"/><ellipse cx="559" cy="635.5" fill="#3f3d56" rx="514" ry="27.5"/><ellipse cx="558" cy="627" opacity=".2" rx="460" ry="22"/><path fill="#3f3d56" d="M131 152.5h840v50H131z"/><path fill="#3f3d56" d="M131 608.83a21.67 21.67 0 0 0 21.67 21.67h796.66A21.67 21.67 0 0 0 971 608.83V177.5H131ZM949.33 117.5H152.67A21.67 21.67 0 0 0 131 139.17v38.33h840v-38.33a21.67 21.67 0 0 0-21.67-21.67Z"/><path d="M949.33 117.5H152.67A21.67 21.67 0 0 0 131 139.17v38.33h840v-38.33a21.67 21.67 0 0 0-21.67-21.67Z" opacity=".2"/><circle cx="181" cy="147.5" r="13" fill="#3f3d56"/><circle cx="217" cy="147.5" r="13" fill="#3f3d56"/><circle cx="253" cy="147.5" r="13" fill="#3f3d56"/><rect width="337" height="386" x="168" y="213.5" fill="#444" rx="5.335"/><rect width="284" height="22" x="603" y="272.5" fill="#2e8555" rx="5.476"/><rect width="416" height="15" x="537" y="352.5" fill="#2e8555" rx="5.476"/><rect width="416" height="15" x="537" y="396.5" fill="#2e8555" rx="5.476"/><rect width="416" height="15" x="537" y="440.5" fill="#2e8555" rx="5.476"/><rect width="416" height="15" x="537" y="484.5" fill="#2e8555" rx="5.476"/><rect width="88" height="26" x="865" y="552.5" fill="#3ecc5f" rx="7.028"/><path fill="#3f3d56" d="M1053.103 506.116a30.114 30.114 0 0 0 3.983-15.266c0-13.797-8.544-24.98-19.083-24.98s-19.082 11.183-19.082 24.98a30.114 30.114 0 0 0 3.983 15.266 31.248 31.248 0 0 0 0 30.532 31.248 31.248 0 0 0 0 30.532 31.248 31.248 0 0 0 0 30.532 30.114 30.114 0 0 0-3.983 15.266c0 13.797 8.543 24.981 19.082 24.981s19.083-11.184 19.083-24.98a30.114 30.114 0 0 0-3.983-15.267 31.248 31.248 0 0 0 0-30.532 31.248 31.248 0 0 0 0-30.532 31.248 31.248 0 0 0 0-30.532Z"/><ellipse cx="1038.003" cy="460.318" fill="#3f3d56" rx="19.083" ry="24.981"/><ellipse cx="1038.003" cy="429.786" fill="#3f3d56" rx="19.083" ry="24.981"/><path fill="#3ecc5f" fill-rule="evenodd" d="M1109.439 220.845a91.61 91.61 0 0 0 7.106-10.461l-50.14-8.235 54.228.403a91.566 91.566 0 0 0 1.746-72.426l-72.755 37.742 67.097-49.321A91.413 91.413 0 1 0 965.75 220.845a91.458 91.458 0 0 0-10.425 16.67l65.087 33.814-69.4-23.292a91.46 91.46 0 0 0 14.738 85.837 91.406 91.406 0 1 0 143.689 0 91.418 91.418 0 0 0 0-113.03Z"/><path d="M946.189 277.36a91.013 91.013 0 0 0 19.56 56.514 91.406 91.406 0 1 0 143.69 0c12.25-15.553-163.25-66.774-163.25-56.515Z" opacity=".1"/><path fill="url(#a)" d="M340.15 39.88A43.42 43.42 0 0 0 335 28c1.72-2.41 3.36-4.89 4.89-7.49L328.08 8.75c-2.68 1.58-5.22 3.28-7.71 5.05a42.48 42.48 0 0 0-11.52-4.75c-.51-3-1.11-6-1.9-9h-16.67c-.78 3-1.37 5.92-1.87 8.88a42.9 42.9 0 0 0-11.85 4.7c-2.39-1.69-4.83-3.33-7.41-4.83l-11.78 11.73c1.42 2.43 2.94 4.74 4.53 7A43.1 43.1 0 0 0 256.39 40c-2.6.46-5.18 1-7.78 1.68v16.65c2.42.64 4.82 1.14 7.24 1.58a42.94 42.94 0 0 0 5.34 13.58 82.692 82.692 0 0 0-3.82 6l11.78 11.79c2-1.16 3.9-2.4 5.76-3.68a42.75 42.75 0 0 0 13.92 5.8c.4 2.22.88 4.42 1.45 6.63H307c.59-2.27 1.07-4.53 1.49-6.79A43.07 43.07 0 0 0 322 87.35c2 1.36 4 2.67 6.07 3.9l11.78-11.79a96.887 96.887 0 0 0-4.19-6.48 43.12 43.12 0 0 0 5-13c2.64-.47 5.28-1 7.92-1.7V41.67c-2.79-.74-5.58-1.31-8.43-1.79m-29.22 40.05a31.54 31.54 0 0 1-24.77.23.13.13 0 0 0 0-.06 31.67 31.67 0 0 1-17.19-17.64l-.16-.42a31.47 31.47 0 0 1 .62-23.51c.18-.42.37-.84.58-1.26a31.74 31.74 0 0 1 15.89-15.16q1-.43 2.1-.81a31.5 31.5 0 0 1 10.28-1.72 31.12 31.12 0 0 1 10.79 1.91c.79.29 1.56.6 2.32 1a31.64 31.64 0 0 1 15.18 14.81q.45.91.84 1.86A31.4 31.4 0 0 1 328 61.5c-.12.35-.24.7-.38 1a31.69 31.69 0 0 1-16.48 17.29z" transform="matrix(2.7 0 0 2.7 -470 270)"/><path fill="url(#b)" d="M321 60.91a6.33 6.33 0 0 0-10.63-3.26l-5-3.72a8.63 8.63 0 0 0-2.28-11.3l4-6.93a4.34 4.34 0 1 0-2.8-2.7 4.27 4.27 0 0 0 1.08 1.66l-4 6.93a8.79 8.79 0 0 0-3.94-.72 8.65 8.65 0 0 0-7.2 4.66l-8.58-3.37v-.09a4 4 0 1 0-.75 1.95l8.58 3.37a8.67 8.67 0 0 0 2.92 8.84l-4 6.24a5.23 5.23 0 0 0-2.27-.38 5.33 5.33 0 1 0 4 1.45l4-6.22a8.67 8.67 0 0 0 10.07-1.82l5 3.73a6.33 6.33 0 1 0 11.8 1.68z" transform="matrix(2.7 0 0 2.7 -470 270)"/></svg>