<svg viewBox="0 0 1088 687.962"><path fill="#3f3d56" d="M961.81 454.442c-5.27 45.15-16.22 81.4-31.25 110.31-20 38.52-54.21 54.04-84.77 70.28a193.275 193.275 0 0 1-27.46 11.94c-55.61 19.3-117.85 14.18-166.74 3.99a657.282 657.282 0 0 0-104.09-13.16q-14.97-.675-29.97-.67c-15.42.02-293.07 5.29-360.67-131.57-16.69-33.76-28.13-75-32.24-125.27-11.63-142.12 52.29-235.46 134.74-296.47 155.97-115.41 369.76-110.57 523.43 7.88 102.36 78.9 198.2 198.31 179.02 362.74Z"/><path fill="#f2f2f2" d="M930.56 564.752c-20 38.52-47.21 64.04-77.77 80.28a193.272 193.272 0 0 1-27.46 11.94c-55.61 19.3-117.85 14.18-166.74 3.99a657.3 657.3 0 0 0-104.09-13.16q-14.97-.675-29.97-.67-23.13.03-46.25 1.72c-100.17 7.36-253.82-6.43-321.42-143.29L326 177.962l62.95 161.619 20.09 51.59 55.37-75.98L493 275.962l130.2 149.27 36.8-81.27 254.78 207.919 14.21 11.59Z"/><path d="m302 282.962 26-57 36 83-31-60Zm252.5 364.84q-14.97-.675-29.97-.67l-115.49-255.96Zm-90.089-332.611L493 292.962l130 150-132-128ZM852.79 645.032a193.265 193.265 0 0 1-27.46 11.94L623.2 425.232Z" opacity=".1"/><circle cx="3" cy="3" r="3" fill="#f2f2f2" transform="translate(479 98.962)"/><circle cx="3" cy="3" r="3" fill="#f2f2f2" transform="translate(396 201.962)"/><circle cx="2" cy="2" r="2" fill="#f2f2f2" transform="translate(600 220.962)"/><circle cx="2" cy="2" r="2" fill="#f2f2f2" transform="translate(180 265.962)"/><circle cx="2" cy="2" r="2" fill="#f2f2f2" transform="translate(612 96.962)"/><circle cx="2" cy="2" r="2" fill="#f2f2f2" transform="translate(736 192.962)"/><circle cx="2" cy="2" r="2" fill="#f2f2f2" transform="translate(858 344.962)"/><path fill="#f2f2f2" d="M306 121.222h-2.76v-2.76h-1.48v2.76H299v1.478h2.76v2.759h1.48V122.7H306Zm542 303h-2.76v-2.76h-1.48v2.76H841v1.478h2.76v2.759h1.48V425.7H848Z"/><path fill="#3f3d56" d="M1088 613.962c0 16.569-243.557 74-544 74s-544-57.431-544-74 243.557 14 544 14 544-30.568 544-14"/><path d="M1088 613.962c0 16.569-243.557 74-544 74s-544-57.431-544-74 243.557 14 544 14 544-30.568 544-14" opacity=".1"/><ellipse cx="544" cy="30" fill="#3f3d56" rx="544" ry="30" transform="translate(0 583.962)"/><path fill="#ff6584" d="M568 571.962c0 33.137-14.775 24-33 24s-33 9.137-33-24 33-96 33-96 33 62.863 33 96"/><path d="M550 584.641c0 15.062-6.716 10.909-15 10.909s-15 4.153-15-10.909 15-43.636 15-43.636 15 28.576 15 43.636" opacity=".1"/><rect width="92" height="18" fill="#2f2e41" rx="9" transform="translate(489 604.962)"/><rect width="92" height="18" fill="#2f2e41" rx="9" transform="translate(489 586.962)"/><path fill="#3f3d56" d="M137 490.528c0 55.343 34.719 100.126 77.626 100.126"/><path fill="#6c63ff" d="M214.626 590.654c0-55.965 38.745-101.251 86.626-101.251m-136.127 6.142c0 52.57 22.14 95.109 49.5 95.109"/><path fill="#3f3d56" d="M214.626 590.654c0-71.511 44.783-129.377 100.126-129.377"/><path fill="#a8a8a8" d="M198.3 591.36s11.009-.339 14.326-2.7 16.934-5.183 17.757-1.395 16.544 18.844 4.115 18.945-28.879-1.936-32.19-3.953-4.008-10.897-4.008-10.897"/><path d="M234.716 604.89c-12.429.1-28.879-1.936-32.19-3.953-2.522-1.536-3.527-7.048-3.863-9.591l-.368.014s.7 8.879 4.009 10.9 19.761 4.053 32.19 3.953c3.588-.029 4.827-1.305 4.759-3.2-.498 1.142-1.867 1.855-4.537 1.877Z" opacity=".2"/><path fill="#3f3d56" d="M721.429 527.062c0 38.029 23.857 68.8 53.341 68.8"/><path fill="#6c63ff" d="M774.769 595.863c0-38.456 26.623-69.575 59.525-69.575m-93.539 4.221c0 36.124 15.213 65.354 34.014 65.354"/><path fill="#3f3d56" d="M774.769 595.863c0-49.139 30.773-88.9 68.8-88.9"/><path fill="#a8a8a8" d="M763.548 596.348s7.565-.233 9.844-1.856 11.636-3.562 12.2-.958 11.368 12.949 2.828 13.018-19.844-1.33-22.119-2.716-2.753-7.488-2.753-7.488"/><path d="M788.574 605.645c-8.54.069-19.844-1.33-22.119-2.716-1.733-1.056-2.423-4.843-2.654-6.59l-.253.01s.479 6.1 2.755 7.487 13.579 2.785 22.119 2.716c2.465-.02 3.317-.9 3.27-2.2-.343.788-1.283 1.278-3.118 1.293Z" opacity=".2"/><path fill="#a8a8a8" d="M893.813 618.699s11.36-1.729 14.5-4.591 16.89-7.488 18.217-3.667 19.494 17.447 6.633 19.107-30.153 1.609-33.835-.065-5.515-10.784-5.515-10.784Z"/><path d="M933.228 628.154c-12.86 1.659-30.153 1.609-33.835-.065-2.8-1.275-4.535-6.858-5.2-9.45l-.379.061s1.833 9.109 5.516 10.783 20.975 1.725 33.835.065c3.712-.479 4.836-1.956 4.529-3.906-.375 1.246-1.703 2.156-4.466 2.512Z" opacity=".2"/><path fill="#a8a8a8" d="M614.26 617.881s9.587-1.459 12.237-3.875 14.255-6.32 15.374-3.095 16.452 14.725 5.6 16.125-25.448 1.358-28.555-.055-4.656-9.1-4.656-9.1Z"/><path d="M647.524 625.856c-10.853 1.4-25.448 1.358-28.555-.055-2.367-1.076-3.827-5.788-4.39-7.976l-.32.051s1.547 7.687 4.655 9.1 17.7 1.456 28.555.055c3.133-.4 4.081-1.651 3.822-3.3-.314 1.057-1.435 1.825-3.767 2.125Z" opacity=".2"/><path fill="#a8a8a8" d="M122.389 613.09s7.463-1.136 9.527-3.016 11.1-4.92 11.969-2.409 12.808 11.463 4.358 12.553-19.811 1.057-22.23-.043-3.624-7.085-3.624-7.085"/><path d="M148.285 619.302c-8.449 1.09-19.811 1.057-22.23-.043-1.842-.838-2.979-4.506-3.417-6.209l-.249.04s1.2 5.984 3.624 7.085 13.781 1.133 22.23.043c2.439-.315 3.177-1.285 2.976-2.566-.246.818-1.119 1.416-2.934 1.65" opacity=".2"/><path d="M383.7 601.318c0 30.22-42.124 20.873-93.7 20.873s-93.074 9.347-93.074-20.873 42.118-36.793 93.694-36.793 93.08 6.573 93.08 36.793" opacity=".1"/><path fill="#3f3d56" d="M383.7 593.881c0 30.22-42.124 20.873-93.7 20.873s-93.074 9.347-93.074-20.873 42.114-36.8 93.69-36.8 93.084 6.576 93.084 36.8"/></svg>